<svg xmlns="http://www.w3.org/2000/svg" xmlns:xlink="http://www.w3.org/1999/xlink" version="1.1" x="0px" y="0px" viewBox="0 0 100 125" enable-background="new 0 0 100 100" xml:space="preserve"><g><g><path d="M55.254,78.737c-1.304,0-2.302-0.388-2.963-1.151c-1.209-1.396-0.896-3.564-0.593-5.662    c0.248-1.716,0.529-3.661-0.187-4.488c-0.379-0.437-1.132-0.659-2.238-0.659c-1.104,0-1.856,0.222-2.235,0.658    c-0.715,0.826-0.435,2.771-0.187,4.487c0.302,2.098,0.616,4.268-0.593,5.664c-0.662,0.764-1.66,1.152-2.966,1.152    c-7.002,0-10.543-19.807-10.543-23.832c0-0.108,0-0.217,0.004-0.322l2.484,0.097c-0.002,0.073-0.002,0.149-0.002,0.225    c0,6.03,4.389,21.346,8.057,21.346c0.38,0,0.876-0.051,1.086-0.293c0.466-0.538,0.214-2.281,0.012-3.681    c-0.324-2.243-0.691-4.785,0.768-6.47c0.872-1.006,2.256-1.516,4.114-1.516c1.86,0,3.246,0.51,4.117,1.517    c1.459,1.686,1.092,4.228,0.768,6.472c-0.202,1.4-0.454,3.142,0.011,3.68c0.209,0.241,0.705,0.292,1.084,0.292    c3.669,0,8.058-15.316,8.058-21.346c0-9.389-4.062-9.389-5.397-9.389c-1.306,0-2.397,0.683-3.662,1.473    c-1.387,0.868-2.961,1.851-4.979,1.851c-2.016,0-3.587-0.983-4.974-1.851c-1.264-0.791-2.356-1.474-3.662-1.474    c-1.978,0-4.677,0.707-5.283,6.817l-2.473-0.246c0.742-7.485,4.627-9.058,7.756-9.058c2.019,0,3.592,0.985,4.979,1.852    c1.263,0.79,2.354,1.472,3.656,1.472c1.306,0,2.397-0.682,3.661-1.473c1.388-0.868,2.96-1.852,4.979-1.852    c3.596,0,7.883,2.061,7.883,11.875C65.797,58.93,62.258,78.737,55.254,78.737z"/></g><g><path d="M68.079,49.415l-1.156-2.906c-1.777-4.474-3.042-5.739-7.516-7.516l-2.907-1.156l2.907-1.155    c4.474-1.778,5.738-3.042,7.516-7.516l1.156-2.906l1.155,2.906c1.777,4.474,3.042,5.738,7.516,7.516l2.906,1.155l-2.906,1.156    c-4.474,1.777-5.739,3.042-7.516,7.516L68.079,49.415z M62.894,37.837c2.447,1.28,3.906,2.738,5.186,5.186    c1.279-2.447,2.738-3.906,5.185-5.186c-2.447-1.279-3.906-2.737-5.185-5.185C66.8,35.1,65.341,36.558,62.894,37.837z"/></g><g><path d="M38.858,40.893l-1.155-2.907c-1.36-3.424-2.328-4.392-5.752-5.753l-2.908-1.155l2.908-1.155    c3.424-1.361,4.392-2.33,5.752-5.753l1.155-2.907l1.155,2.907c1.361,3.424,2.328,4.393,5.753,5.753l2.906,1.155l-2.906,1.155    c-3.425,1.361-4.392,2.329-5.753,5.753L38.858,40.893z M35.348,31.078c1.58,0.896,2.614,1.932,3.511,3.51    c0.896-1.578,1.933-2.614,3.51-3.51c-1.578-0.896-2.614-1.933-3.51-3.511C37.963,29.146,36.927,30.182,35.348,31.078z"/></g><g><path d="M30.158,63.201l-1.155-2.907c-1.361-3.424-2.329-4.392-5.753-5.752l-2.907-1.155l2.907-1.155    c3.424-1.36,4.392-2.328,5.753-5.753l1.155-2.906l1.156,2.906c1.359,3.425,2.328,4.393,5.752,5.753l2.908,1.155l-2.908,1.155    c-3.424,1.361-4.393,2.329-5.752,5.752L30.158,63.201z M26.647,53.386c1.579,0.896,2.614,1.932,3.511,3.511    c0.896-1.578,1.932-2.615,3.511-3.511c-1.579-0.896-2.614-1.932-3.511-3.51C29.262,51.454,28.226,52.49,26.647,53.386z"/></g><g><path d="M59.867,56.347c-0.687,0-1.243-0.556-1.243-1.243c0-1.947-1.572-4.171-2.178-4.863c-0.452-0.517-0.399-1.302,0.117-1.754    c0.517-0.453,1.302-0.4,1.754,0.117c0.114,0.13,2.792,3.23,2.792,6.5C61.109,55.791,60.553,56.347,59.867,56.347z"/></g></g></svg>
